<svg xmlns="http://www.w3.org/2000/svg" width="112" height="80" viewBox="0 0 112 80">
  <!-- Adjacent pieces 5 and 6 from engine.js piecePath, breezy, ratio 4/3, seed 0; scaled to 36px. -->
  <path fill="#b94821" transform="translate(15 23) rotate(-10 18 18)" d="M 0 0 L 12.24,0 C 16.2,0,15.12,-0.9504,15.12,1.98 C 10.08,9.504,25.92,9.504,20.88,1.98 C 20.88,-0.9504,19.8,0,23.76,0 L 36,0 L 36,12.24 C 36,16.2,35.0496,15.12,37.98,15.12 C 45.504,10.08,45.504,25.92,37.98,20.88 C 35.0496,20.88,36,19.8,36,23.76 L 36,36 L 23.76,36 C 19.8,36,20.88,35.0496,20.88,37.98 C 25.92,45.504,10.08,45.504,15.12,37.98 C 15.12,35.0496,16.2,36,12.24,36 L 0,36 L 0,23.76 C 0,19.8,0.9504,20.88,-1.98,20.88 C -9.504,25.92,-9.504,10.08,-1.98,15.12 C 0.9504,15.12,0,16.2,0,12.24 L 0,0 Z"/>
  <path fill="#173f52" transform="translate(61 22) rotate(8 18 18)" d="M 0 0 L 12.24,0 C 16.2,0,15.12,0.9504,15.12,-1.98 C 10.08,-9.504,25.92,-9.504,20.88,-1.98 C 20.88,0.9504,19.8,0,23.76,0 L 36,0 L 36,12.24 C 36,16.2,36.9504,15.12,34.02,15.12 C 26.496,10.08,26.496,25.92,34.02,20.88 C 36.9504,20.88,36,19.8,36,23.76 L 36,36 L 23.76,36 C 19.8,36,20.88,36.9504,20.88,34.02 C 25.92,26.496,10.08,26.496,15.12,34.02 C 15.12,36.9504,16.2,36,12.24,36 L 0,36 L 0,23.76 C 0,19.8,-0.9504,20.88,1.98,20.88 C 9.504,25.92,9.504,10.08,1.98,15.12 C -0.9504,15.12,0,16.2,0,12.24 L 0,0 Z"/>
</svg>
